<?xml version="1.0" encoding="UTF-8"?>
<svg version="1.1" xmlns="http://www.w3.org/2000/svg" width="512" height="512">
<path d="M0 0 C23.1 0 46.2 0 70 0 C71.74128156 4.35320389 72.72311522 8.30760044 73.5 12.875 C74.16476999 16.73943213 74.85137163 20.4955094 75.9609375 24.26171875 C77.39651482 29.42655894 78.23958339 34.65451421 79.125 39.9375 C79.30675781 41.00291016 79.48851562 42.06832031 79.67578125 43.16601562 C80.12066391 45.7767744 80.56197091 48.38808415 81 51 C83.97 51.66 86.94 52.32 90 53 C90 53.66 90 54.32 90 55 C90.56847656 55.04898438 91.13695312 55.09796875 91.72265625 55.1484375 C96.71081129 55.63143081 101.22599578 56.47638163 106 58 C106 58.66 106 59.32 106 60 C107.65 60 109.3 60 111 60 C111 60.66 111 61.32 111 62 C112.8871875 62.2784375 112.8871875 62.2784375 114.8125 62.5625 C115.52019531 62.66691406 116.22789062 62.77132812 116.95703125 62.87890625 C119.2025342 63.13904799 119.2025342 63.13904799 122 62 C122 61.34 122 60.68 122 60 C123.2578125 58.6953125 123.2578125 58.6953125 125.125 57.125 C125.84300781 56.5165625 126.56101562 55.908125 127.30078125 55.28125 C128.63689453 54.15203125 128.63689453 54.15203125 130 53 C131.18239308 51.9703595 132.3632795 50.93898725 133.54296875 49.90625 C134.79934438 48.81234517 136.05585541 47.71859584 137.3125 46.625 C137.92303223 46.08891113 138.53356445 45.55282227 139.16259766 45.00048828 C141.75298897 42.76160396 143.71889195 41.09370268 147 40 C147.67893174 38.67287005 148.34408366 37.33865454 149 36 C150.76953125 34.26171875 150.76953125 34.26171875 152.8125 32.6875 C153.47894531 32.15511719 154.14539063 31.62273438 154.83203125 31.07421875 C157 30 157 30 159.29296875 29.98828125 C163.24412186 31.46497484 166.20735208 33.90318831 169.5 36.5 C170.9177848 37.59177625 172.33707884 38.68159515 173.7578125 39.76953125 C174.46583008 40.31303223 175.17384766 40.8565332 175.90332031 41.41650391 C179.00322594 43.75767622 182.17501063 45.98590731 185.375 48.1875 C186.41398437 48.90292969 187.45296875 49.61835937 188.5234375 50.35546875 C190.8672965 51.98457594 190.8672965 51.98457594 193 53 C193 53.66 193 54.32 193 55 C193.8353125 55.4021875 193.8353125 55.4021875 194.6875 55.8125 C197.21225334 57.10899496 199.63714484 58.42476323 202 60 C202 60.66 202 61.32 202 62 C202.680625 62.226875 203.36125 62.45375 204.0625 62.6875 C207.74684061 64.33369474 211.18001879 66.06052806 214 69 C214.4375 72.3125 214.4375 72.3125 214 75 C213.34 75 212.68 75 212 75 C211.87367188 75.56074219 211.74734375 76.12148437 211.6171875 76.69921875 C210.95574198 79.16498717 210.08584216 81.44763653 209.125 83.8125 C208.77179688 84.68261719 208.41859375 85.55273438 208.0546875 86.44921875 C206.73275566 89.6463354 205.37944097 92.82728576 204 96 C203.34 96 202.68 96 202 96 C202 97.32 202 98.64 202 100 C201.34 100 200.68 100 200 100 C199.86722656 100.60328125 199.73445313 101.2065625 199.59765625 101.828125 C199.42105469 102.62734375 199.24445313 103.4265625 199.0625 104.25 C198.80146484 105.43335937 198.80146484 105.43335937 198.53515625 106.640625 C198.052444 108.76878703 197.53836822 110.88532842 197 113 C196.34 113 195.68 113 195 113 C194.38511811 116.42577052 194.61603855 118.42550129 196.55859375 121.33203125 C197.83689238 122.92411747 199.13998988 124.49665486 200.46875 126.046875 C202 128 202 128 202 130 C202.66 130 203.32 130 204 130 C204.33 131.32 204.66 132.64 205 134 C205.66 134 206.32 134 207 134 C208.2890625 135.6796875 208.2890625 135.6796875 209.625 137.875 C210.07101562 138.59429687 210.51703125 139.31359375 210.9765625 140.0546875 C212 142 212 142 212 144 C212.66 144 213.32 144 214 144 C214.33 145.65 214.66 147.3 215 149 C219.39621031 148.69266343 223.79188529 148.37823188 228.1875 148.0625 C230.05631836 147.93198242 230.05631836 147.93198242 231.96289062 147.79882812 C233.7659668 147.66831055 233.7659668 147.66831055 235.60546875 147.53515625 C236.71043701 147.456604 237.81540527 147.37805176 238.95385742 147.29711914 C241.70100292 147.02916402 244.30139464 146.56087773 247 146 C250.86522859 145.70330868 254.73089695 145.49417463 258.6015625 145.28125 C261.9860735 145.13625669 261.9860735 145.13625669 265 144 C265.99 144 266.98 144 268 144 C268 144.66 268 145.32 268 146 C268.99 146.33 269.98 146.66 271 147 C272.09765625 149.94921875 272.09765625 149.94921875 273.0625 153.6875 C274.96325987 160.91649438 277.30862291 167.90256685 279.8125 174.9375 C289.10705192 201.17198333 289.10705192 201.17198333 289.3125 207.5625 C289.34988281 208.32691406 289.38726563 209.09132812 289.42578125 209.87890625 C289 212 289 212 287.31640625 213.58984375 C282.96997033 216.23581908 278.49558245 218.61883766 274 221 C273.01966797 221.52207031 273.01966797 221.52207031 272.01953125 222.0546875 C268.26785714 224 268.26785714 224 266 224 C266 224.66 266 225.32 266 226 C265.01 226 264.02 226 263 226 C263 226.66 263 227.32 263 228 C256.375 231 256.375 231 253 231 C253 231.66 253 232.32 253 233 C252.01 233 251.02 233 250 233 C249.67 233.66 249.34 234.32 249 235 C247.68 235.33 246.36 235.66 245 236 C245.33 249.53 245.66 263.06 246 277 C247.65 277.66 249.3 278.32 251 279 C251 279.66 251 280.32 251 281 C251.68835938 281.0825 252.37671875 281.165 253.0859375 281.25 C256.71497877 282.18401598 259.52461056 283.97554479 262.625 286 C267.10082871 288.90683659 267.10082871 288.90683659 272 291 C272 291.66 272 292.32 272 293 C272.52078125 293.09152344 273.0415625 293.18304688 273.578125 293.27734375 C276.87558251 294.26126252 279.75673368 295.90140166 282.75 297.5625 C283.65298828 298.0565332 283.65298828 298.0565332 284.57421875 298.56054688 C286.05170503 299.3696465 287.52616036 300.18427662 289 301 C289.48101018 308.71219656 287.8285007 314.64239696 285.25 321.875 C284.90195312 322.88691406 284.55390625 323.89882813 284.1953125 324.94140625 C282.47920722 329.90539968 280.69674296 334.84405959 278.89453125 339.77734375 C277.33079163 344.05859055 275.85631 348.35614933 274.4375 352.6875 C272.7475075 357.84613283 270.92945784 362.92748331 269 368 C265.85418577 368.02888514 262.70840531 368.04675923 259.5625 368.0625 C258.66466797 368.07087891 257.76683594 368.07925781 256.84179688 368.08789062 C255.56079102 368.09272461 255.56079102 368.09272461 254.25390625 368.09765625 C253.06776733 368.10551147 253.06776733 368.10551147 251.85766602 368.11352539 C250 368 250 368 249 367 C247.06558746 366.83392961 245.12671149 366.71981593 243.1875 366.625 C233.7027879 366.02668828 224.37744954 364.50001456 215 363 C214.67 364.65 214.34 366.3 214 368 C213.34 368 212.68 368 212 368 C211.731875 368.721875 211.46375 369.44375 211.1875 370.1875 C210.00098638 372.99766383 208.72514361 375.48416557 207 378 C206.34 378 205.68 378 205 378 C204.75378906 378.5465625 204.50757813 379.093125 204.25390625 379.65625 C202.18915088 383.51560583 199.4198858 386.86496046 196.77734375 390.34375 C195.19380492 392.71035748 194.27567337 394.19425767 194 397 C194.98546999 398.67529898 195.98940479 400.33973644 197 402 C198.53292894 406.28945139 200 410.42291796 200 415 C200.66 415 201.32 415 202 415 C202 416.32 202 417.64 202 419 C202.66 419 203.32 419 204 419 C205.12531424 421.72903747 206.250262 424.45822505 207.375 427.1875 C207.69210937 427.95642578 208.00921875 428.72535156 208.3359375 429.51757812 C208.95225445 431.01343073 209.56530945 432.51063224 210.17480469 434.00927734 C210.84329441 435.62195935 211.55917776 437.21494077 212.2890625 438.80078125 C213.13176013 441.40758766 213.16619317 442.5224874 212 445 C210.21484375 446.4921875 210.21484375 446.4921875 207.9375 447.875 C203.98165361 450.35214343 200.29384036 453.01091365 196.62890625 455.8984375 C195 457 195 457 193 457 C193 457.66 193 458.32 193 459 C191.5234375 460.15625 191.5234375 460.15625 189.375 461.5 C185.18198988 464.20069471 181.11109613 467.02779418 177.0625 469.9375 C176.46155518 470.36458252 175.86061035 470.79166504 175.24145508 471.23168945 C172.49398163 473.18715878 169.78855048 475.16433305 167.125 477.234375 C161.03664782 481.87488733 161.03664782 481.87488733 156.375 482.4375 C152.29551857 480.69994309 150.10160115 478.43968675 147.1328125 475.203125 C144.25386409 472.2292662 141.0292889 469.87262538 137.6875 467.4453125 C137.130625 466.96835937 136.57375 466.49140625 136 466 C136 465.34 136 464.68 136 464 C135.34 464 134.68 464 134 464 C134 463.34 134 462.68 134 462 C133.071875 461.5359375 133.071875 461.5359375 132.125 461.0625 C130.75 460.375 129.375 459.6875 128 459 C128 458.34 128 457.68 128 457 C127.01 456.67 126.02 456.34 125 456 C125 455.34 125 454.68 125 454 C124.34 454 123.68 454 123 454 C123 453.34 123 452.68 123 452 C122.01 452 121.02 452 120 452 C119.34 451.01 118.68 450.02 118 449 C115.69 449.33 113.38 449.66 111 450 C111 450.66 111 451.32 111 452 C109.35 452 107.7 452 106 452 C106 452.66 106 453.32 106 454 C95.62642369 457.44419134 95.62642369 457.44419134 90 457 C90 457.66 90 458.32 90 459 C86.7 459.33 83.4 459.66 80 460 C79.69255859 461.93166016 79.69255859 461.93166016 79.37890625 463.90234375 C79.10698348 465.58076363 78.83483649 467.2591472 78.5625 468.9375 C78.42779297 469.78763672 78.29308594 470.63777344 78.15429688 471.51367188 C78.02216797 472.32255859 77.89003906 473.13144531 77.75390625 473.96484375 C77.63345947 474.7137085 77.5130127 475.46257324 77.38891602 476.23413086 C77 478 77 478 76 479 C75.65744397 480.47267428 75.36587918 481.95730355 75.09765625 483.4453125 C74.84532227 484.81429687 74.84532227 484.81429687 74.58789062 486.2109375 C74.41451172 487.17257812 74.24113281 488.13421875 74.0625 489.125 C72.63585025 497.02310661 71.03711711 504.53727903 68 512 C59.05543869 512.11577854 50.11113471 512.20465589 41.16598797 512.25906086 C37.01248931 512.2851709 32.85950273 512.32059326 28.70629883 512.37719727 C24.69921135 512.43146894 20.69261679 512.46140993 16.6851902 512.47438622 C15.15528411 512.48363501 13.62540544 512.50169607 12.09570885 512.52865028 C9.95473022 512.56488004 7.81579568 512.56994847 5.67456055 512.56762695 C3.84588692 512.58428154 3.84588692 512.58428154 1.98027039 512.60127258 C-1 512 -1 512 -2.86343384 509.65171814 C-4.13843961 506.67700709 -4.88620597 503.87493691 -5.53515625 500.703125 C-5.78716797 499.4965625 -6.03917969 498.29 -6.29882812 497.046875 C-6.55083984 495.79390625 -6.80285156 494.5409375 -7.0625 493.25 C-7.57404966 490.7760067 -8.08576482 488.30204761 -8.59765625 485.828125 C-8.83701904 484.65314453 -9.07638184 483.47816406 -9.32299805 482.26757812 C-9.90108265 479.4774287 -10.51248497 476.69924162 -11.1484375 473.921875 C-11.81834825 470.94955588 -12.30724492 468.04133707 -12.5625 465 C-12.62166047 462.20486875 -12.62166047 462.20486875 -14 460 C-15.34747084 459.76924918 -16.70377565 459.58846937 -18.0625 459.4375 C-19.361875 459.293125 -20.66125 459.14875 -22 459 C-22 458.34 -22 457.68 -22 457 C-22.56847656 456.95101563 -23.13695312 456.90203125 -23.72265625 456.8515625 C-28.71081129 456.36856919 -33.22599578 455.52361837 -38 454 C-38 453.34 -38 452.68 -38 452 C-39.051875 452.0928125 -39.051875 452.0928125 -40.125 452.1875 C-43 452 -43 452 -46.0625 450.4375 C-48.80404517 448.78598343 -48.80404517 448.78598343 -51.3125 449.1875 C-53.19618462 449.88247578 -53.19618462 449.88247578 -54 452 C-54.66 452 -55.32 452 -56 452 C-56.33 452.99 -56.66 453.98 -57 455 C-59.5625 456.1875 -59.5625 456.1875 -62 457 C-62 457.66 -62 458.32 -62 459 C-65.46153846 462 -65.46153846 462 -68 462 C-68 462.66 -68 463.32 -68 464 C-68.66 464 -69.32 464 -70 464 C-70 464.66 -70 465.32 -70 466 C-75.47619048 471 -75.47619048 471 -78 471 C-78.2475 471.598125 -78.495 472.19625 -78.75 472.8125 C-80.18072525 475.31626919 -81.5691582 476.48072388 -84 478 C-84.66 478 -85.32 478 -86 478 C-86.66 479.32 -87.32 480.64 -88 482 C-92.45845711 481.49046204 -94.6230172 479.87043538 -98 477 C-98.7425 476.566875 -99.485 476.13375 -100.25 475.6875 C-103.70245657 473.5689471 -106.7674867 471.06861997 -109.9140625 468.5234375 C-112.01720862 466.82529102 -112.01720862 466.82529102 -115 466 C-115 465.34 -115 464.68 -115 464 C-115.66 464 -116.32 464 -117 464 C-117 463.34 -117 462.68 -117 462 C-117.5775 461.87625 -118.155 461.7525 -118.75 461.625 C-121.02335767 460.99351176 -122.9253529 460.11141809 -125 459 C-125 458.34 -125 457.68 -125 457 C-125.66 457 -126.32 457 -127 457 C-127 456.34 -127 455.68 -127 455 C-127.72574219 454.731875 -128.45148438 454.46375 -129.19921875 454.1875 C-131.96864024 453.01329619 -134.30919434 451.6605676 -136.8125 450 C-137.60269531 449.484375 -138.39289063 448.96875 -139.20703125 448.4375 C-140.09455078 447.7259375 -140.09455078 447.7259375 -141 447 C-141 446.34 -141 445.68 -141 445 C-142.32 444.67 -143.64 444.34 -145 444 C-146.52719791 437.7531107 -145.34991777 434.56697726 -142.25 429.0625 C-141.52201659 427.72223054 -140.79803863 426.37977755 -140.078125 425.03515625 C-139.72685547 424.37918457 -139.37558594 423.72321289 -139.01367188 423.04736328 C-137.4005177 419.78919591 -136.20974187 416.42632585 -135 413 C-134.34 413 -133.68 413 -133 413 C-132.896875 412.113125 -132.79375 411.22625 -132.6875 410.3125 C-132 407 -132 407 -130.5 404.75 C-128.27857904 400.67739491 -127.969813 396.60351699 -128 392 C-128.77262795 389.00405043 -128.77262795 389.00405043 -130 387 C-130.66 387 -131.32 387 -132 387 C-135 383.53846154 -135 383.53846154 -135 381 C-135.66 381 -136.32 381 -137 381 C-138.72689953 378.59181936 -140.34861262 376.18432303 -141.9375 373.6875 C-142.81834568 372.31430389 -143.70236236 370.94313564 -144.58984375 369.57421875 C-144.98034912 368.96151123 -145.37085449 368.34880371 -145.77319336 367.7175293 C-147.62826763 365.11399185 -147.62826763 365.11399185 -150 363 C-152.65341545 362.75332914 -152.65341545 362.75332914 -155.62109375 363.109375 C-157.27141602 363.25246094 -157.27141602 363.25246094 -158.95507812 363.3984375 C-160.67887695 363.57246094 -160.67887695 363.57246094 -162.4375 363.75 C-163.58283203 363.85054688 -164.72816406 363.95109375 -165.90820312 364.0546875 C-170.37625744 364.46253798 -174.65171426 364.89240176 -179 366 C-182.38555086 366.25391631 -185.76579021 366.43963104 -189.15625 366.60546875 C-193.27170752 366.80236646 -193.27170752 366.80236646 -197.25 367.78125 C-199 368 -199 368 -201.12890625 366.421875 C-203.23479455 363.69609056 -204.02492366 361.5638717 -204.9375 358.25 C-205.26492187 357.1053125 -205.59234375 355.960625 -205.9296875 354.78125 C-206.45949219 352.90953125 -206.45949219 352.90953125 -207 351 C-207.83651592 348.24441814 -208.69814644 345.49696014 -209.5625 342.75 C-209.77769287 342.06276855 -209.99288574 341.37553711 -210.21459961 340.66748047 C-212.88655455 332.14566504 -215.78923382 323.73455658 -218.81640625 315.33203125 C-222.65135831 304.5359451 -222.65135831 304.5359451 -222 301 C-218.41457087 297.16729989 -213.45505953 294.9692502 -208.86328125 292.52734375 C-205.46193041 290.71298062 -202.11898991 288.80441011 -198.77734375 286.8828125 C-197 286 -197 286 -195 286 C-195 285.34 -195 284.68 -195 284 C-189 281 -183 278 -177 275 C-177.495 273.515 -177.495 273.515 -178 272 C-178.08378628 269.7161483 -178.10729915 267.429899 -178.09765625 265.14453125 C-178.0962413 264.48289474 -178.09482635 263.82125824 -178.09336853 263.13957214 C-178.08777996 261.03050172 -178.07522965 258.92153823 -178.0625 256.8125 C-178.05748352 255.38086091 -178.05292087 253.94922015 -178.04882812 252.51757812 C-178.0378143 249.01168412 -178.02055755 245.5058525 -178 242 C-177.67 242 -177.34 242 -177 242 C-176.67 239.69 -176.34 237.38 -176 235 C-178.31 234.34 -180.62 233.68 -183 233 C-183 232.34 -183 231.68 -183 231 C-183.721875 230.87625 -184.44375 230.7525 -185.1875 230.625 C-189.16230265 229.74171052 -192.12484188 228.70901107 -195.31347656 226.12573242 C-197.94535901 224.0432351 -200.55414461 222.42894059 -203.484375 220.80078125 C-204.50144531 220.23166016 -205.51851562 219.66253906 -206.56640625 219.07617188 C-207.61699219 218.49416016 -208.66757813 217.91214844 -209.75 217.3125 C-211.84972638 216.14330533 -213.94872617 214.97280451 -216.046875 213.80078125 C-216.97338867 213.28684814 -217.89990234 212.77291504 -218.85449219 212.2434082 C-221 211 -221 211 -222 210 C-221.17333244 197.8755424 -215.65189309 185.98145953 -211.5625 174.625 C-210.62420977 172.01376654 -209.6879129 169.40183126 -208.75390625 166.7890625 C-208.41306503 165.83571014 -208.41306503 165.83571014 -208.06533813 164.86309814 C-205.60432 157.94395501 -203.29360989 150.97621493 -201 144 C-197.87501937 143.97104024 -194.7500731 143.95321517 -191.625 143.9375 C-190.73554688 143.92912109 -189.84609375 143.92074219 -188.9296875 143.91210938 C-188.07890625 143.90888672 -187.228125 143.90566406 -186.3515625 143.90234375 C-185.56604004 143.89710693 -184.78051758 143.89187012 -183.97119141 143.88647461 C-182 144 -182 144 -180 145 C-177.94069784 145.18560234 -175.87698734 145.32319505 -173.8125 145.4375 C-167.17738303 145.8624765 -160.66169161 146.6537678 -154.08203125 147.59765625 C-151.02223719 148.06472332 -151.02223719 148.06472332 -148 148 C-146.38086604 145.91296574 -146.38086604 145.91296574 -144.875 143.1875 C-141.68074377 137.93352252 -138.0937337 133.29148693 -134.15234375 128.58203125 C-132.21426649 126.25704202 -130.33487231 123.90689485 -128.5 121.5 C-128.0359375 120.8915625 -127.571875 120.283125 -127.09375 119.65625 C-125.81417351 117.87402385 -125.81417351 117.87402385 -125 115 C-125.66 115 -126.32 115 -127 115 C-127.18175781 114.43152344 -127.36351563 113.86304687 -127.55078125 113.27734375 C-128.78615962 109.4825148 -130.04976916 105.76700145 -131.6875 102.125 C-133 99 -133 99 -133 96 C-133.66 96 -134.32 96 -135 96 C-135.21914062 95.42894531 -135.43828125 94.85789062 -135.6640625 94.26953125 C-138.10691272 88.02338171 -140.86673771 81.99853549 -143.828125 75.98046875 C-144.98355976 73.04181301 -145.25343261 71.11606916 -145 68 C-144.01 67.67 -143.02 67.34 -142 67 C-142 66.34 -142 65.68 -142 65 C-138.66666667 63.33333333 -135.33333333 61.66666667 -132 60 C-132 59.34 -132 58.68 -132 58 C-127.61538462 55 -127.61538462 55 -125 55 C-125 54.34 -125 53.68 -125 53 C-123.0859375 51.625 -123.0859375 51.625 -120.375 50 C-115.76764548 47.15375783 -111.32750254 44.16476003 -106.9375 41 C-106.34646484 40.57678467 -105.75542969 40.15356934 -105.14648438 39.7175293 C-102.41917381 37.76057096 -99.71255237 35.78431985 -97.02734375 33.76953125 C-96.15207031 33.12371094 -95.27679688 32.47789063 -94.375 31.8125 C-93.61960938 31.24144531 -92.86421875 30.67039062 -92.0859375 30.08203125 C-90 29 -90 29 -87.7265625 29.32421875 C-87.15679687 29.54722656 -86.58703125 29.77023438 -86 30 C-86 30.66 -86 31.32 -86 32 C-85.443125 32.23847656 -84.88625 32.47695313 -84.3125 32.72265625 C-81.47703247 34.28886889 -79.37277022 36.23473009 -77 38.4375 C-73.47118637 41.70433082 -73.47118637 41.70433082 -69.6875 44.66015625 C-69.130625 45.10230469 -68.57375 45.54445312 -68 46 C-68 46.66 -68 47.32 -68 48 C-67.4225 48.268125 -66.845 48.53625 -66.25 48.8125 C-63.94449957 50.02929189 -61.97943808 51.30333879 -60 53 C-60 53.66 -60 54.32 -60 55 C-59.41734375 55.26554687 -58.8346875 55.53109375 -58.234375 55.8046875 C-55.93825772 57.03302996 -54.19643982 58.40314939 -52.25 60.125 C-51.32960937 60.93324219 -51.32960937 60.93324219 -50.390625 61.7578125 C-49.93171875 62.16773438 -49.4728125 62.57765625 -49 63 C-48.37996094 62.68546875 -47.75992188 62.3709375 -47.12109375 62.046875 C-40.20127168 58.70279796 -33.41967578 56.62012162 -25.9921875 54.796875 C-23.13716032 54.30426617 -23.13716032 54.30426617 -22 53 C-20.31816052 52.76712992 -18.6287584 52.58735834 -16.9375 52.4375 C-16.01839844 52.35371094 -15.09929687 52.26992188 -14.15234375 52.18359375 C-13.44207031 52.12300781 -12.73179687 52.06242187 -12 52 C-11.97421875 51.46375 -11.9484375 50.9275 -11.921875 50.375 C-11.47662657 44.22247619 -10.21212977 38.41607009 -8.65551758 32.46679688 C-7.08322434 26.44470995 -5.73701893 20.38718283 -4.4831543 14.29101562 C-4.33273682 13.58654297 -4.18231934 12.88207031 -4.02734375 12.15625 C-3.83773071 11.24069336 -3.83773071 11.24069336 -3.64428711 10.30664062 C-2.66397813 6.79699331 -1.27948871 3.4119699 0 0 Z " fill="#216AB2" transform="translate(223,0)"/>
<path d="M0 0 C19.47465682 16.5534583 34.55353827 36.50670806 42.875 60.875 C43.1016333 61.5335498 43.3282666 62.19209961 43.56176758 62.87060547 C47.50795389 75.26866506 49.00618589 87.71394678 48.89111328 100.66699219 C48.87500004 102.81249488 48.89109647 104.95611523 48.91015625 107.1015625 C48.93197846 120.41206466 46.94183289 133.19590794 42.375 145.75 C42.0764209 146.58208984 41.7778418 147.41417969 41.47021484 148.27148438 C36.79805342 160.84210795 30.55506599 172.14748637 22.15234375 182.58984375 C20.30113013 184.61841786 20.30113013 184.61841786 20.5 186.8125 C22.5810115 188.45646866 22.5810115 188.45646866 25.1875 190.125 C33.42099659 195.8072723 37.86436147 200.98579831 40.5 210.8125 C41.43723809 218.0634886 42.05320083 225.72366775 37.5 231.8125 C37.06429687 232.40417969 36.62859375 232.99585938 36.1796875 233.60546875 C33.68155577 235.40063783 31.66213078 235.1742303 28.625 235.125 C27.08199219 235.11919922 27.08199219 235.11919922 25.5078125 235.11328125 C20.22255585 234.58475558 16.99828263 232.63895531 13 229.25 C1.8079571 219.14981405 1.8079571 219.14981405 -10.8515625 213.98828125 C-13.89459391 214.93530135 -16.18414007 216.29277374 -18.875 218 C-46.42043395 234.36660656 -82.60273436 238.54507771 -113.5 230.8125 C-115.35431641 230.36003906 -115.35431641 230.36003906 -117.24609375 229.8984375 C-124.73101591 227.91642367 -131.56523443 225.22452544 -138.5 221.8125 C-139.41910156 221.40644531 -140.33820313 221.00039063 -141.28515625 220.58203125 C-170.4187222 207.21117527 -194.1807866 179.54009738 -205.5 149.8125 C-207.42955476 144.21704376 -209.00578999 138.5373752 -210.5 132.8125 C-210.73589844 131.91402344 -210.97179687 131.01554688 -211.21484375 130.08984375 C-218.69495783 99.13199936 -212.46913579 64.10702707 -196.5 36.8125 C-176.52056983 4.86820195 -147.2808382 -17.09633331 -110.5625 -25.9375 C-71.89603341 -34.69986133 -30.84645781 -24.24612405 0 0 Z " fill="#3AB54A" transform="translate(339.5,153.1875)"/>
<path d="M0 0 C14.02332178 12.28936631 14.02332178 12.28936631 16 19 C16.66 19 17.32 19 18 19 C29.63985867 41.51691107 38.22081607 65.67533716 30.58203125 91.18359375 C30.00594843 92.93947052 29.4157881 94.69078362 28.8125 96.4375 C28.50368896 97.35039795 28.19487793 98.2632959 27.87670898 99.20385742 C25.54731174 105.89186604 22.82609234 112.01559915 19 118 C18.34 118 17.68 118 17 118 C16.71125 118.763125 16.4225 119.52625 16.125 120.3125 C15 123 15 123 13 126 C8.6996318 125.38451979 5.45280767 123.83347538 1.625 121.8125 C-13.24736388 114.15973023 -29.78765384 106.88386134 -46.71875 106.8671875 C-48.61173828 106.86525391 -48.61173828 106.86525391 -50.54296875 106.86328125 C-51.84878906 106.86714844 -53.15460938 106.87101562 -54.5 106.875 C-56.45873047 106.86919922 -56.45873047 106.86919922 -58.45703125 106.86328125 C-59.71902344 106.86457031 -60.98101562 106.86585938 -62.28125 106.8671875 C-63.42658203 106.86831543 -64.57191406 106.86944336 -65.75195312 106.87060547 C-68.91888192 106.99676845 -71.88601969 107.43136254 -75 108 C-77.67810075 108.11196073 -80.31732686 108.04625299 -83 108 C-83.33 108.99 -83.66 109.98 -84 111 C-85.65315612 111.74223336 -87.31130945 112.47522891 -88.9921875 113.15234375 C-99.68238438 117.66552025 -108.01912397 126.95810342 -115 136 C-126.08994709 125.29100529 -126.08994709 125.29100529 -129 120 C-129 119.34 -129 118.68 -129 118 C-129.66 118 -130.32 118 -131 118 C-138.03219808 105.03493009 -144.63003353 91.03649426 -145 76 C-145.03867188 75.00871094 -145.07734375 74.01742187 -145.1171875 72.99609375 C-145.52076354 54.0055992 -139.81041078 37.53212092 -131 21 C-130.67 20.34 -130.34 19.68 -130 19 C-129.34 19 -128.68 19 -128 19 C-127.80921875 18.32453125 -127.6184375 17.6490625 -127.421875 16.953125 C-120.08441895 1.71379321 -101.02334196 -9.30572186 -85.68359375 -14.78125 C-56.45420609 -24.45205483 -24.05191298 -19.47207981 0 0 Z " fill="#FDFCFB" transform="translate(312,189)"/>
<path d="M0 0 C1.89395508 -0.01401855 1.89395508 -0.01401855 3.82617188 -0.02832031 C15.92398456 0.01269992 27.33057463 1.926123 39.0625 4.75 C39.98869141 4.96269531 40.91488281 5.17539063 41.86914062 5.39453125 C42.75150391 5.60464844 43.63386719 5.81476563 44.54296875 6.03125 C45.32953857 6.21751953 46.1161084 6.40378906 46.92651367 6.59570312 C48.875 7.25 48.875 7.25 50.875 9.25 C52.69196162 9.88248664 54.52912585 10.45765553 56.375 11 C63.77032988 13.38530424 70.20390121 16.80542929 76.0625 21.9375 C78.75549214 24.39403218 78.75549214 24.39403218 82.09375 25.515625 C86.48265099 27.33193978 89.6859256 30.15893651 93.1875 33.3125 C93.84194092 33.89394775 94.49638184 34.47539551 95.1706543 35.07446289 C97.08407431 36.78696557 98.98194324 38.51504241 100.875 40.25 C101.8134375 41.10335937 102.751875 41.95671875 103.71875 42.8359375 C110.48111716 49.27730621 115.72094956 56.51353984 120.875 64.25 C121.58785156 65.301875 122.30070312 66.35375 123.03515625 67.4375 C129.78784163 77.84626359 138.65745055 93.33956599 137.875 106.25 C138.535 106.25 139.195 106.25 139.875 106.25 C142.58491454 117.12360924 143.34840548 127.41450621 143.26611328 138.5925293 C143.2500381 141.18136432 143.2660508 143.76863393 143.28515625 146.35742188 C143.30480824 161.7238162 140.79415166 175.66733722 135.875 190.25 C135.215 190.25 134.555 190.25 133.875 190.25 C133.771875 190.95125 133.66875 191.6525 133.5625 192.375 C132.77674043 195.66090365 131.38615829 198.22768341 129.875 201.25 C129.35606775 202.78539748 128.8569759 204.32760369 128.375 205.875 C127.32425188 209.13727035 126.35038709 211.77461291 123.875 214.25 C123.215 214.25 122.555 214.25 121.875 214.25 C121.771875 214.95125 121.66875 215.6525 121.5625 216.375 C120.78140997 219.64137647 119.45441257 222.2971852 117.875 225.25 C117.215 225.25 116.555 225.25 115.875 225.25 C116.40172458 229.29524475 117.45941855 231.25904132 120.1875 234.25 C126.47934373 242.05654685 128.66767227 251.61153348 128.25 261.53125 C127.66290974 265.78765442 126.44165995 268.81552952 123.875 272.25 C123.37355469 272.92417969 122.87210937 273.59835937 122.35546875 274.29296875 C119.09250732 277.85450181 116.89362736 279.13544312 112.01953125 279.68359375 C108.2850955 279.75783173 104.59615783 279.55525123 100.875 279.25 C100.875 278.59 100.875 277.93 100.875 277.25 C100.194375 277.04375 99.51375 276.8375 98.8125 276.625 C96.19719372 275.40081408 94.73547612 274.37925846 92.625 272.5 C89.93708787 270.11726567 87.19258996 267.93774579 84.25 265.875 C83.53585937 265.37226563 82.82171875 264.86953125 82.0859375 264.3515625 C79.45520598 263.04084467 77.7808365 262.9613094 74.875 263.25 C72.08284901 264.45570157 69.49970633 265.88324482 66.87890625 267.421875 C61.07463892 270.77407217 55.22215623 273.11910394 48.875 275.25 C48.00746094 275.55164063 47.13992188 275.85328125 46.24609375 276.1640625 C40.17348131 278.25 40.17348131 278.25 37.875 278.25 C37.875 278.91 37.875 279.57 37.875 280.25 C35.96127365 280.74077821 34.04376751 281.21681642 32.125 281.6875 C30.52398437 282.08775391 30.52398437 282.08775391 28.890625 282.49609375 C19.34087728 284.50392507 9.4624708 284.40931968 -0.25 284.375 C-1.35214844 284.37886719 -2.45429688 284.38273437 -3.58984375 284.38671875 C-14.05204208 284.37430808 -23.45511527 283.47980892 -33.5 280.5 C-34.4168457 280.23340576 -35.33369141 279.96681152 -36.27832031 279.69213867 C-42.13658193 277.94989125 -47.79432719 275.97205313 -53.359375 273.42578125 C-55.70810455 272.42723945 -57.98137139 271.66182164 -60.4140625 270.91015625 C-65.26033565 269.31834037 -69.42572189 267.05585043 -73.75 264.375 C-74.9090686 263.66077881 -74.9090686 263.66077881 -76.09155273 262.93212891 C-84.1467955 257.82295924 -91.18440574 251.76288257 -98.125 245.25 C-98.98738281 244.45722656 -99.84976563 243.66445313 -100.73828125 242.84765625 C-118.38744041 225.99103274 -130.33394092 203.4569772 -137.125 180.25 C-137.44339844 179.1671875 -137.76179688 178.084375 -138.08984375 176.96875 C-147.92125566 140.57785218 -141.18391832 102.77462853 -123.125 70.25 C-116.70855687 59.59632252 -108.93239564 50.00948054 -100.125 41.25 C-99.3812915 40.50242432 -99.3812915 40.50242432 -98.62255859 39.73974609 C-86.70468625 27.88200808 -73.38430622 19.25173352 -58.125 12.25 C-56.97128906 11.71503906 -55.81757813 11.18007812 -54.62890625 10.62890625 C-36.63317818 2.58399325 -19.52770084 0.09201034 0 0 Z M-55.125 23.25 C-56.04410156 23.65605469 -56.96320313 24.06210938 -57.91015625 24.48046875 C-86.5504858 37.62495378 -110.83369727 65.14856348 -121.95751953 94.44238281 C-130.3110332 117.81250777 -133.30494178 142.74147548 -128.125 167.25 C-127.86847656 168.50296875 -127.61195313 169.7559375 -127.34765625 171.046875 C-119.95169889 204.7038404 -99.03669361 234.16929394 -70.25 252.9375 C-40.91707141 271.46271085 -4.96627744 278.72104286 29.171875 271.01586914 C31.41794843 270.46350597 33.64672891 269.86998306 35.875 269.25 C36.5462793 269.06808105 37.21755859 268.88616211 37.90917969 268.69873047 C48.92934275 265.62352786 60.03094697 260.80612752 69.5859375 254.4453125 C71.875 253.25 71.875 253.25 73.87890625 253.37890625 C83.76780961 257.69441594 94.21931155 265.59431155 101.875 273.25 C106.94334837 274.98836447 112.61514891 274.90388859 117.875 274.25 C121.35742391 271.72353559 122.52726822 270.29319535 123.875 266.25 C124.77208243 255.19025515 124.26202876 245.33681939 117.265625 236.1328125 C113.38783113 231.98819795 108.79693726 229.02418282 103.875 226.25 C105.30978527 223.0572086 107.19563397 220.28992465 109.20043945 217.4296875 C124.78215057 195.04213789 132.55168906 169.65390748 132.3125 142.4375 C132.30945862 141.69742706 132.30641724 140.95735413 132.30328369 140.19485474 C132.23237004 128.48921698 131.3678709 117.47268788 127.875 106.25 C127.66601074 105.54214355 127.45702148 104.83428711 127.24169922 104.10498047 C118.22703391 74.07635378 98.38429649 47.99231966 71.875 31.25 C71.01890137 30.70738525 71.01890137 30.70738525 70.14550781 30.15380859 C33.28163717 7.16846793 -16.01662624 4.00799898 -55.125 23.25 Z " fill="#F5F9F9" transform="translate(256.125,113.75)"/>
<path d="M0 0 C5.43208581 3.4849683 8.47695528 8.50582499 10.2421875 14.62109375 C12.33562568 25.68142548 12.33562568 25.68142548 9.61450195 29.72827148 C6.74108838 31.79534558 4.3566186 31.43494335 0.85546875 31.390625 C0.19383224 31.38638016 -0.46780426 31.38213531 -1.14949036 31.37776184 C-3.2589316 31.36099318 -5.36741096 31.32334724 -7.4765625 31.28515625 C-8.90818931 31.27010693 -10.33983112 31.25641895 -11.77148438 31.24414062 C-15.27765538 31.21109655 -18.78326504 31.15932792 -22.2890625 31.09765625 C-22.03244005 32.53776106 -21.75815429 33.97472495 -21.4765625 35.41015625 C-21.32574219 36.21066406 -21.17492187 37.01117188 -21.01953125 37.8359375 C-20.20165479 40.36829297 -19.32891643 41.42775064 -17.2890625 43.09765625 C-14.49847088 44.49295206 -12.15174562 44.26738979 -9.0390625 44.28515625 C-7.92015625 44.29933594 -6.80125 44.31351562 -5.6484375 44.328125 C-2.1988189 44.09146512 0.463923 43.23231739 3.7109375 42.09765625 C5.0309375 42.09765625 6.3509375 42.09765625 7.7109375 42.09765625 C7.7109375 45.39765625 7.7109375 48.69765625 7.7109375 52.09765625 C-2.07808388 56.34572213 -12.77283875 58.27160942 -23.30078125 55.2265625 C-29.27428803 52.13332045 -32.76298493 47.6314458 -35.390625 41.546875 C-37.80642511 32.27230327 -38.328267 18.894733 -34.2265625 10.09765625 C-26.75912368 -1.57947187 -12.90958591 -5.85561386 0 0 Z " fill="#ED4F22" transform="translate(257.2890625,234.90234375)"/>
<path d="M0 0 C1.50046875 0.00386719 1.50046875 0.00386719 3.03125 0.0078125 C4.0315625 0.00523437 5.031875 0.00265625 6.0625 0 C8.53125 0.1328125 8.53125 0.1328125 9.53125 1.1328125 C9.65334924 2.54398952 9.70895872 3.96101709 9.73657227 5.37719727 C9.75651749 6.27805557 9.77646271 7.17891388 9.79701233 8.10707092 C9.81372482 9.08622971 9.83043732 10.06538849 9.84765625 11.07421875 C9.86843735 12.07162582 9.88921844 13.0690329 9.91062927 14.09666443 C9.97623637 17.29614093 10.03506134 20.49570232 10.09375 23.6953125 C10.13692462 25.85873289 10.18053855 28.02214456 10.22460938 30.18554688 C10.33192903 35.50121124 10.43367427 40.81696084 10.53125 46.1328125 C12.11579292 43.92533858 13.69891053 41.71686508 15.28125 39.5078125 C15.7246875 38.89035156 16.168125 38.27289063 16.625 37.63671875 C18.72384228 34.70451262 20.78105497 31.76582621 22.734375 28.734375 C24.53125 26.1328125 24.53125 26.1328125 26.53125 25.1328125 C28.57180005 25.06215633 30.61459257 25.04859274 32.65625 25.0703125 C33.75195312 25.07933594 34.84765625 25.08835938 35.9765625 25.09765625 C37.24113281 25.11505859 37.24113281 25.11505859 38.53125 25.1328125 C39.25 26.8359375 39.25 26.8359375 39.53125 29.1328125 C38.125 31.4296875 38.125 31.4296875 36.03125 33.8828125 C35.2990625 34.75164062 34.566875 35.62046875 33.8125 36.515625 C33.0596875 37.37929687 32.306875 38.24296875 31.53125 39.1328125 C30.8403125 39.93460938 30.149375 40.73640625 29.4375 41.5625 C27.81487064 43.43118382 26.18054089 45.28766831 24.53125 47.1328125 C25.88914685 50.75956938 27.52093552 54.00175549 29.5 57.328125 C30.07105469 58.29105469 30.64210938 59.25398438 31.23046875 60.24609375 C31.82472656 61.23996094 32.41898437 62.23382813 33.03125 63.2578125 C33.62550781 64.25941406 34.21976562 65.26101563 34.83203125 66.29296875 C38.0886687 71.77109698 38.0886687 71.77109698 41.53125 77.1328125 C41.15625 79.3203125 41.15625 79.3203125 40.53125 81.1328125 C38.49563894 81.37744825 36.45143638 81.55118863 34.40625 81.6953125 C32.70082031 81.85193359 32.70082031 81.85193359 30.9609375 82.01171875 C26.3322344 80.82554768 25.36894126 78.73976103 22.99560547 74.75024414 C22.51236816 73.8864917 22.02913086 73.02273926 21.53125 72.1328125 C20.7889917 70.88455688 20.7889917 70.88455688 20.03173828 69.61108398 C18.54732646 67.11157143 17.09769935 64.59480735 15.65625 62.0703125 C15.15867187 61.20470703 14.66109375 60.33910156 14.1484375 59.44726562 C12.93993979 57.34401481 11.73426056 55.23920499 10.53125 53.1328125 C10.50619385 53.94548584 10.4811377 54.75815918 10.45532227 55.59545898 C10.33975882 59.25392002 10.21685416 62.91209778 10.09375 66.5703125 C10.05443359 67.84970703 10.01511719 69.12910156 9.97460938 70.44726562 C9.93271484 71.66220703 9.89082031 72.87714844 9.84765625 74.12890625 C9.79266968 75.81777954 9.79266968 75.81777954 9.73657227 77.54077148 C9.53125 80.1328125 9.53125 80.1328125 8.53125 81.1328125 C6.70009117 81.23132421 4.86505067 81.26253879 3.03125 81.2578125 C2.0309375 81.26039063 1.030625 81.26296875 0 81.265625 C-2.46875 81.1328125 -2.46875 81.1328125 -3.46875 80.1328125 C-3.5690688 77.67376029 -3.6049318 75.24277822 -3.59814453 72.78320312 C-3.59989685 72.01413132 -3.60164917 71.24505951 -3.60345459 70.4526825 C-3.6078734 67.89811987 -3.60493502 65.34362589 -3.6015625 62.7890625 C-3.60223553 61.02168769 -3.60320555 59.25431297 -3.60446167 57.48693848 C-3.60593868 53.77790447 -3.60378398 50.0688945 -3.59912109 46.35986328 C-3.5934238 41.59458757 -3.59670279 36.82936818 -3.60269356 32.06409454 C-3.60629908 28.41310193 -3.60516062 24.76212277 -3.60256577 21.11112976 C-3.60189647 19.35357151 -3.602725 17.59601205 -3.60504532 15.8384552 C-3.60757171 13.38641096 -3.60373146 10.93445919 -3.59814453 8.48242188 C-3.60016876 7.74887985 -3.60219299 7.01533783 -3.60427856 6.25956726 C-3.57853859 0.19251632 -3.57853859 0.19251632 0 0 Z " fill="#ED4C1E" transform="translate(285.46875,208.8671875)"/>
<path d="M0 0 C1.50046875 0.00386719 1.50046875 0.00386719 3.03125 0.0078125 C4.0315625 0.00523437 5.031875 0.00265625 6.0625 0 C8.53125 0.1328125 8.53125 0.1328125 9.53125 1.1328125 C9.60383946 3.31920703 9.61498783 5.50781639 9.59375 7.6953125 C9.58472656 8.89285156 9.57570312 10.09039062 9.56640625 11.32421875 C9.55480469 12.25105469 9.54320312 13.17789063 9.53125 14.1328125 C10.38589844 14.12121094 11.24054688 14.10960937 12.12109375 14.09765625 C13.22582031 14.08863281 14.33054688 14.07960937 15.46875 14.0703125 C16.57089844 14.05871094 17.67304688 14.04710937 18.80859375 14.03515625 C21.53125 14.1328125 21.53125 14.1328125 22.53125 15.1328125 C22.62948937 16.79710301 22.66098631 18.46563181 22.65625 20.1328125 C22.66011719 21.4940625 22.66011719 21.4940625 22.6640625 22.8828125 C22.53125 25.1328125 22.53125 25.1328125 21.53125 26.1328125 C19.51160801 26.20525303 17.48957876 26.21658438 15.46875 26.1953125 C14.36402344 26.18628906 13.25929687 26.17726562 12.12109375 26.16796875 C11.26644531 26.15636719 10.41179687 26.14476562 9.53125 26.1328125 C9.64126624 30.69580318 9.77186611 35.25797956 9.90625 39.8203125 C9.9371875 41.11388672 9.968125 42.40746094 10 43.74023438 C10.03867188 44.98740234 10.07734375 46.23457031 10.1171875 47.51953125 C10.16431885 49.23982544 10.16431885 49.23982544 10.21240234 50.99487305 C10.52548652 54.07609122 11.22795803 56.3410239 12.53125 59.1328125 C17.48125 58.6378125 17.48125 58.6378125 22.53125 58.1328125 C23.01953125 65.65234375 23.01953125 65.65234375 22.53125 68.1328125 C19.00817202 71.09117124 16.04721784 71.54237348 11.53125 71.5078125 C10.520625 71.51554687 9.51 71.52328125 8.46875 71.53125 C5.11999568 71.07703066 3.24907526 70.10941269 0.53125 68.1328125 C-3.53646726 62.61233908 -3.5930667 57.33630395 -3.56640625 50.64453125 C-3.5649913 49.94133255 -3.56357635 49.23813385 -3.56211853 48.5136261 C-3.55655109 46.28247706 -3.54400475 44.05143086 -3.53125 41.8203125 C-3.52623079 40.30143375 -3.52166862 38.78255341 -3.51757812 37.26367188 C-3.50659236 33.55335238 -3.48935034 29.84309249 -3.46875 26.1328125 C-5.77875 26.1328125 -8.08875 26.1328125 -10.46875 26.1328125 C-11.6585806 23.7531513 -11.60224966 22.21795515 -11.59375 19.5703125 C-11.59761719 18.36181641 -11.59761719 18.36181641 -11.6015625 17.12890625 C-11.46875 15.1328125 -11.46875 15.1328125 -10.46875 14.1328125 C-8.13577567 14.09188313 -5.80169775 14.09039527 -3.46875 14.1328125 C-3.48035156 13.20597656 -3.49195313 12.27914062 -3.50390625 11.32421875 C-3.51292969 10.12667969 -3.52195313 8.92914063 -3.53125 7.6953125 C-3.54285156 6.50035156 -3.55445313 5.30539063 -3.56640625 4.07421875 C-3.43727936 0.18491693 -3.43727936 0.18491693 0 0 Z " fill="#ED4C1D" transform="translate(190.46875,219.8671875)"/>
<path d="M0 0 C0 0.66 0 1.32 0 2 C-1.65 2 -3.3 2 -5 2 C-5 2.66 -5 3.32 -5 4 C-12.2546278 5.73051648 -19.17450893 6.38583183 -26.625 6.375 C-27.66954346 6.37483887 -28.71408691 6.37467773 -29.7902832 6.37451172 C-40.51701446 6.21777259 -50.07743437 4.14841727 -60 0 C-47.9979087 -13.86996644 -14.08517666 -7.70698346 0 0 Z " fill="#EFF8F0" transform="translate(283,341)"/>
<path d="M0 0 C1.26166992 -0.00918457 2.52333984 -0.01836914 3.82324219 -0.02783203 C15.92204122 0.01158287 27.32972455 1.92591838 39.0625 4.75 C39.98869141 4.96269531 40.91488281 5.17539063 41.86914062 5.39453125 C42.75150391 5.60464844 43.63386719 5.81476563 44.54296875 6.03125 C45.32953857 6.21751953 46.1161084 6.40378906 46.92651367 6.59570312 C48.875 7.25 48.875 7.25 50.875 9.25 C52.7329984 9.90458713 54.61183431 10.50083046 56.5 11.0625 C61.94907221 12.80226402 66.18464354 15.00283014 70.875 18.25 C67.80609813 19.78445094 65.17405734 18.79984289 61.875 18.25 C61.875 16.93 61.875 15.61 61.875 14.25 C54.45 13.26 54.45 13.26 46.875 12.25 C46.875 11.59 46.875 10.93 46.875 10.25 C41.925 9.755 41.925 9.755 36.875 9.25 C37.205 8.26 37.535 7.27 37.875 6.25 C36.14692682 5.91104344 34.41748026 5.57908475 32.6875 5.25 C31.72457031 5.064375 30.76164062 4.87875 29.76953125 4.6875 C24.68263752 3.88070666 24.68263752 3.88070666 19.875 5.25 C19.34600098 4.94537842 18.81700195 4.64075684 18.27197266 4.3269043 C14.76266138 2.75025202 11.29959341 2.98470829 7.5234375 3.01953125 C6.30232773 3.02021858 6.30232773 3.02021858 5.05654907 3.0209198 C3.33342024 3.02393777 1.61029404 3.03181049 -0.11279297 3.04418945 C-2.71982768 3.06229051 -5.32650311 3.06469996 -7.93359375 3.06445312 C-16.05971873 3.08229281 -24.0523282 3.20970724 -32.125 4.25 C-25.65593219 -2.21906781 -8.34349789 0.03378349 0 0 Z " fill="#ACC7E1" transform="translate(256.125,113.75)"/>
<path d="M0 0 C3 2.5625 3 2.5625 5 6 C5 8.31 5 10.62 5 13 C-1.27 13 -7.54 13 -14 13 C-14 6 -14 6 -12.125 3.125 C-8.57275398 -0.42724602 -4.8825369 -0.970906 0 0 Z " fill="#FEFAF9" transform="translate(249,243)"/>
<path d="M0 0 C8.7688512 8.525272 13.05785405 16.86924969 13.5 29.3125 C13.22967139 36.37833051 10.96661695 40.75243778 6.375 46 C4 48 4 48 2 48 C2 47.34 2 46.68 2 46 C-0.97 46 -3.94 46 -7 46 C-7 45.67 -7 45.34 -7 45 C-6.32453125 44.97421875 -5.6490625 44.9484375 -4.953125 44.921875 C0.67371772 44.64673589 0.67371772 44.64673589 5.5625 42.125 C9.49136571 36.31711156 8.76997566 27.76684003 8 21 C6.17844381 14.38410792 3.41388263 9.23441209 -1 4 C-0.34 4 0.32 4 1 4 C0.67 2.68 0.34 1.36 0 0 Z " fill="#CBE3E0" transform="translate(371,343)"/>
<path d="M0 0 C3.38608737 1.4511803 5.81173659 3.00126866 8 6 C8.0835781 10.59679556 7.47745571 12.45267273 4.4375 15.9375 C3.2309375 16.9584375 3.2309375 16.9584375 2 18 C1.34 17.34 0.68 16.68 0 16 C0.99 14.68 1.98 13.36 3 12 C2.608125 12.515625 2.21625 13.03125 1.8125 13.5625 C0 15 0 15 -2.625 14.75 C-5 14 -5 14 -6 13 C-6.4664311 7.6360424 -6.4664311 7.6360424 -4.625 5.125 C-3 4 -3 4 -1 4 C-0.67 2.68 -0.34 1.36 0 0 Z " fill="#EFF2F7" transform="translate(136,138)"/>
<path d="M0 0 C0.66 0 1.32 0 2 0 C2.84384675 1.41042956 3.67469496 2.82864132 4.5 4.25 C4.9640625 5.03890625 5.428125 5.8278125 5.90625 6.640625 C7 9 7 9 7 13 C-0.02598684 17.06217105 -0.02598684 17.06217105 -3.9375 16.8125 C-6 16 -6 16 -7 15 C-7.29978682 12.15202522 -7.40071289 10.58103368 -5.75 8.1875 C-4 7 -4 7 0 7 C-0.66 5.35 -1.32 3.7 -2 2 C-1.34 1.34 -0.68 0.68 0 0 Z " fill="#E9EEF5" transform="translate(181,101)"/>
<path d="M0 0 C7.33404533 0.53145256 13.96524395 1.87352431 21 4 C21 6.31 21 8.62 21 11 C19.35 11.33 17.7 11.66 16 12 C16.33 9.69 16.66 7.38 17 5 C15.68 5.33 14.36 5.66 13 6 C12.67 7.65 12.34 9.3 12 11 C10.68 11 9.36 11 8 11 C8 8.36 8 5.72 8 3 C7.01 3.33 6.02 3.66 5 4 C4.67 5.65 4.34 7.3 4 9 C2.35 9 0.7 9 -1 9 C-0.67 6.03 -0.34 3.06 0 0 Z " fill="#EDF1F7" transform="translate(280,91)"/>
<path d="M0 0 C2.23828125 1.84765625 2.23828125 1.84765625 4.3125 4.0625 C5.00988281 4.79597656 5.70726562 5.52945313 6.42578125 6.28515625 C7.20501953 7.13400391 7.20501953 7.13400391 8 8 C7.67 8.66 7.34 9.32 7 10 C6.38511719 9.9278125 5.77023438 9.855625 5.13671875 9.78125 C4.32847656 9.6884375 3.52023438 9.595625 2.6875 9.5 C1.88699219 9.4071875 1.08648437 9.314375 0.26171875 9.21875 C-2.11896555 8.95186537 -2.11896555 8.95186537 -5 9 C-5 10.32 -5 11.64 -5 13 C-6.32 13.33 -7.64 13.66 -9 14 C-9.17786056 8.84204369 -9.11596899 4.81970715 -7 0 C-4.22900141 -1.38549929 -2.93423462 -0.905842 0 0 Z " fill="#D0DCEB" transform="translate(207,95)"/>
<path d="M0 0 C1.2375 0.13277344 2.475 0.26554687 3.75 0.40234375 C17.48892314 1.8211608 31.19716655 2.55666575 45 3 C45.33 2.34 45.66 1.68 46 1 C47.134375 1.01160156 48.26875 1.02320313 49.4375 1.03515625 C50.95833167 1.0445441 52.47916514 1.05364322 54 1.0625 C54.74378906 1.07087891 55.48757813 1.07925781 56.25390625 1.08789062 C61.26148844 1.10966272 66.04279032 0.71541549 71 0 C59.69245262 6.03237461 45.31968446 5.16897415 32.875 5.125 C31.22177734 5.13080078 31.22177734 5.13080078 29.53515625 5.13671875 C21.03857936 5.12663977 12.51958911 5.11357928 4.375 2.4375 C3.53710938 2.16808594 2.69921875 1.89867187 1.8359375 1.62109375 C1.23007813 1.41613281 0.62421875 1.21117187 0 1 C0 0.67 0 0.34 0 0 Z " fill="#A1BFDE" transform="translate(223,393)"/>
<path d="M0 0 C4.75 0.75 4.75 0.75 7 3 C6.828125 5.09375 6.828125 5.09375 6.25 7.5 C6.06953125 8.2940625 5.8890625 9.088125 5.703125 9.90625 C5 12 5 12 3 14 C1.68 14 0.36 14 -1 14 C-1.33 13.34 -1.66 12.68 -2 12 C-2.66 12 -3.32 12 -4 12 C-4.33292585 7.75519536 -4.43885872 5.64457375 -2 2.0625 C-1.34 1.381875 -0.68 0.70125 0 0 Z " fill="#D6DFED" transform="translate(102,201)"/>
<path d="M0 0 C6.2246696 0.34581498 6.2246696 0.34581498 9 2.6875 C10.33721014 5.77979844 9.80305964 7.78776145 9 11 C6.875 11.875 6.875 11.875 4 12 C1.48104675 10.3823236 -0.37597462 8.51406064 -2 6 C-1.94162863 3.37328813 -1.88893674 1.88893674 0 0 Z " fill="#DCE4F0" transform="translate(364,129)"/>
<path d="M0 0 C2.6875 0.375 2.6875 0.375 5 2.5 C6.92253152 5.77542406 7.03468988 7.64270881 6.6875 11.375 C4.7075 12.035 2.7275 12.695 0.6875 13.375 C-2.24511437 10.35074144 -3.26878972 8.89952339 -3.625 4.625 C-3.23066262 0.52389124 -3.23066262 0.52389124 0 0 Z " fill="#E4EAF3" transform="translate(394.3125,161.625)"/>
<path d="M0 0 C0.66 0 1.32 0 2 0 C2 2.64 2 5.28 2 8 C5.3 8.33 8.6 8.66 12 9 C12 10.65 12 12.3 12 14 C10.741875 14.020625 9.48375 14.04125 8.1875 14.0625 C7.47980469 14.07410156 6.77210937 14.08570313 6.04296875 14.09765625 C4 14 4 14 1 13 C1 15.64 1 18.28 1 21 C0.34 21 -0.32 21 -1 21 C-1.13794954 13.93391809 -0.74805717 7.02639415 0 0 Z " fill="#F1F4F8" transform="translate(90,229)"/>
<path d="M0 0 C1.57849109 4.83412897 2.40435072 8.84452833 2 14 C0 16 0 16 -3.125 16.125 C-4.548125 16.063125 -4.548125 16.063125 -6 16 C-6.33 14.68 -6.66 13.36 -7 12 C-5.02 11.67 -3.04 11.34 -1 11 C-1 9.35 -1 7.7 -1 6 C-3.31 6.33 -5.62 6.66 -8 7 C-8.33 5.35 -8.66 3.7 -9 2 C-3.375 0 -3.375 0 0 0 Z " fill="#EEF2F7" transform="translate(417,205)"/>
<path d="M0 0 C3.44165321 0.35299007 5.06872538 1.04581692 8 3 C7.67 4.32 7.34 5.64 7 7 C4.69 6.67 2.38 6.34 0 6 C0 6.99 0 7.98 0 9 C1.32 9.66 2.64 10.32 4 11 C3.67 12.32 3.34 13.64 3 15 C-0.34373475 14.44271087 -3.03312999 13.64826111 -6 12 C-5.67 10.68 -5.34 9.36 -5 8 C-4.34 8 -3.68 8 -3 8 C-2.87625 7.05125 -2.7525 6.1025 -2.625 5.125 C-2 2 -2 2 0 0 Z " fill="#E9EEF5" transform="translate(111,175)"/>
<path d="M0 0 C2 1.3125 2 1.3125 3 3 C2.7181953 5.32488881 2.04553582 6.90892835 1 9 C-2.93774177 9.36630156 -4.56539771 9.30233203 -7.875 7 C-8.57625 6.34 -9.2775 5.68 -10 5 C-9.625 2.5625 -9.625 2.5625 -9 0 C-5.85000502 -1.57499749 -3.36459118 -0.70833498 0 0 Z " fill="#D9E3EF" transform="translate(313,98)"/>
<path d="M0 0 C2 2 2 2 2.1875 5.0625 C2 8 2 8 1 9 C-0.99609375 9.16796875 -0.99609375 9.16796875 -3.4375 9.1875 C-4.64212891 9.20876953 -4.64212891 9.20876953 -5.87109375 9.23046875 C-8 9 -8 9 -10 7 C-10.3125 4.5 -10.3125 4.5 -10 2 C-6.32653229 -0.44897847 -4.33643601 -0.31537716 0 0 Z " fill="#D4DDEB" transform="translate(250,90)"/>
<path d="M0 0 C4.48108283 1.23616078 6.36254426 2.73754426 9.625 6 C9.625 6.66 9.625 7.32 9.625 8 C7.625 7 5.625 6 3.625 5 C1.62539988 4.960008 -0.37547242 4.95653201 -2.375 5 C-1.96078031 9.83256305 0.08913986 11.82679218 3.625 15 C2.635 15.495 2.635 15.495 1.625 16 C-5.85571749 11.34798206 -5.85571749 11.34798206 -7.12890625 8.04296875 C-7.375 6.125 -7.375 6.125 -7.375 3 C-4.82177724 0.44677724 -3.67559352 0 0 0 Z " fill="#E2E8F2" transform="translate(356.375,116)"/>
<path d="M0 0 C4.3124594 1.59720719 6.42143673 4.31633819 9 8 C9 10.70149505 8.25366738 11.64969742 6.6875 13.8125 C5 15 5 15 2.8125 14.6875 C2.214375 14.460625 1.61625 14.23375 1 14 C1.309375 13.401875 1.61875 12.80375 1.9375 12.1875 C3.10209704 9.91043228 3.10209704 9.91043228 4 7 C3.4225 7.165 2.845 7.33 2.25 7.5 C0 8 0 8 -4 8 C-4 4 -4 4 -2 1.75 C-1.01 0.88375 -1.01 0.88375 0 0 Z " fill="#EAEEF5" transform="translate(377,138)"/>
<path d="M0 0 C3.19017028 1.30878781 3.95709812 2.96128035 5.4375 6 C4.633125 6.268125 3.82875 6.53625 3 6.8125 C2.154375 7.204375 1.30875 7.59625 0.4375 8 C0.1075 8.99 -0.2225 9.98 -0.5625 11 C-2.2125 11.33 -3.8625 11.66 -5.5625 12 C-6.25 10.25 -6.25 10.25 -6.5625 8 C-5.125 5.75 -5.125 5.75 -3.5625 4 C-4.01625 4.495 -4.47 4.99 -4.9375 5.5 C-6.5625 7 -6.5625 7 -8.5625 7 C-6.82470634 2.80033198 -4.80633122 0 0 0 Z " fill="#EEF2F7" transform="translate(155.5625,124)"/>
<path d="M0 0 C5.75 0.75 5.75 0.75 8 3 C7.625 5.125 7.625 5.125 7 7 C6.401875 6.67 5.80375 6.34 5.1875 6 C2.94613529 4.79212012 2.94613529 4.79212012 0 5 C0 5.99 0 6.98 0 8 C0.99 8.66 1.98 9.32 3 10 C2.67 11.32 2.34 12.64 2 14 C-0.9719385 12.87548273 -3.33440687 11.77706209 -6 10 C-4.34832443 6.4213696 -2.21713508 3.25179812 0 0 Z " fill="#EEF2F7" transform="translate(124,153)"/>
<path d="M0 0 C1.8125 1.875 1.8125 1.875 3 4 C2.67 4.99 2.34 5.98 2 7 C0.0625 6.625 0.0625 6.625 -2 6 C-2.33 5.34 -2.66 4.68 -3 4 C-3.99 4 -4.98 4 -6 4 C-5.34 6.31 -4.68 8.62 -4 11 C-5.32 11.33 -6.64 11.66 -8 12 C-12 7.375 -12 7.375 -12 4 C-10.390625 2.578125 -10.390625 2.578125 -8.25 1.25 C-7.55390625 0.80140625 -6.8578125 0.3528125 -6.140625 -0.109375 C-3.57634118 -1.17626681 -2.54006472 -1.04180244 0 0 Z " fill="#ECF0F6" transform="translate(171,115)"/>
<path d="M0 0 C1.4589426 0.47730838 2.91713496 0.95691042 4.375 1.4375 C5.18710937 1.70433594 5.99921875 1.97117187 6.8359375 2.24609375 C9 3 9 3 11 4 C10.125 9.75 10.125 9.75 9 12 C7.68 12 6.36 12 5 12 C5.33 9.69 5.66 7.38 6 5 C5.01 5 4.02 5 3 5 C2.34 6.32 1.68 7.64 1 9 C-0.32 9 -1.64 9 -3 9 C-2.43945339 5.63672037 -1.58158962 3.00887781 0 0 Z " fill="#EEF2F7" transform="translate(320,101)"/>
<path d="M0 0 C0.66 0 1.32 0 2 0 C3.31626692 3.61973402 4 6.09567131 4 10 C3.34 10 2.68 10 2 10 C2 9.34 2 8.68 2 8 C1.236875 8.33 0.47375 8.66 -0.3125 9 C-3 10 -3 10 -6 10 C-6 10.99 -6 11.98 -6 13 C-6.66 13 -7.32 13 -8 13 C-9.85776765 9.86501708 -10.20140476 7.62528568 -10 4 C-9.34 4 -8.68 4 -8 4 C-8 4.66 -8 5.32 -8 6 C-7.236875 5.67 -6.47375 5.34 -5.6875 5 C-3 4 -3 4 0 4 C0 2.68 0 1.36 0 0 Z " fill="#EDF0F6" transform="translate(415,192)"/>
<path d="M0 0 C1.57035335 2.49409061 2.0274945 3.70443416 1.75 6.6875 C1.5025 7.450625 1.255 8.21375 1 9 C-1.70879335 10.35439668 -4.00933268 10.06501451 -7 10 C-7.33 7.36 -7.66 4.72 -8 2 C-4.77208445 -0.1519437 -3.71599191 -0.20086443 0 0 Z " fill="#E0E7F1" transform="translate(235,91)"/>
<path d="M0 0 C2.62892424 0.16960802 3.78485562 0.80790681 5.75 2.5625 C7.58461055 6.13999057 7.19968583 9.00628343 7 13 C6.34 13 5.68 13 5 13 C4.34 10.69 3.68 8.38 3 6 C2.34 6 1.68 6 1 6 C1 8.64 1 11.28 1 14 C0.01 14 -0.98 14 -2 14 C-2.05389087 12.04196493 -2.09274217 10.08351091 -2.125 8.125 C-2.14820313 7.03445312 -2.17140625 5.94390625 -2.1953125 4.8203125 C-2 2 -2 2 0 0 Z " fill="#EAEEF5" transform="translate(415,224)"/>
<path d="M0 0 C0.763125 0.103125 1.52625 0.20625 2.3125 0.3125 C4.07712683 3.40059695 4.3125 4.54562136 4.3125 8.3125 C3.3225 8.3125 2.3325 8.3125 1.3125 8.3125 C1.3125 7.6525 1.3125 6.9925 1.3125 6.3125 C0.3225 6.9725 -0.6675 7.6325 -1.6875 8.3125 C-1.6875 9.6325 -1.6875 10.9525 -1.6875 12.3125 C-3.0075 11.6525 -4.3275 10.9925 -5.6875 10.3125 C-6.09735108 5.53090409 -5.46212627 0.63513096 0 0 Z " fill="#EAEFF5" transform="translate(390.6875,150.6875)"/>
<path d="M0 0 C2.64 0 5.28 0 8 0 C7.67 0.99 7.34 1.98 7 3 C7.66 3.33 8.32 3.66 9 4 C8.125 7.875 8.125 7.875 7 9 C4.66702567 9.04092937 2.33294775 9.04241723 0 9 C-0.33 8.01 -0.66 7.02 -1 6 C-0.34 5.67 0.32 5.34 1 5 C0.67 3.35 0.34 1.7 0 0 Z " fill="#E1E7F1" transform="translate(255,90)"/>
<path d="M0 0 C1.98 0.66 3.96 1.32 6 2 C5.835 2.598125 5.67 3.19625 5.5 3.8125 C4.8885876 6.11344336 4.8885876 6.11344336 5 9 C2.125 9.625 2.125 9.625 -1 10 C-3 8 -3 8 -3.3125 5.5625 C-2.95209822 2.60720543 -2.28773145 1.81112073 0 0 Z " fill="#E5EAF3" transform="translate(177,108)"/>
<path d="M0 0 C1.9375 0.9375 1.9375 0.9375 3.1875 3.5 C3.435 4.304375 3.6825 5.10875 3.9375 5.9375 C2.6175 6.2675 1.2975 6.5975 -0.0625 6.9375 C-0.0625 8.5875 -0.0625 10.2375 -0.0625 11.9375 C-1.7125 11.6075 -3.3625 11.2775 -5.0625 10.9375 C-5.14346803 9.48007537 -5.20167774 8.02137193 -5.25 6.5625 C-5.28480469 5.75039062 -5.31960938 4.93828125 -5.35546875 4.1015625 C-5.25878906 3.38742188 -5.16210938 2.67328125 -5.0625 1.9375 C-2.0625 -0.0625 -2.0625 -0.0625 0 0 Z " fill="#EBEFF6" transform="translate(339.0625,106.0625)"/>
<path d="M0 0 C2.34982419 0.22740234 3.81152204 0.88301368 5.8125 2.125 C7 4 7 4 7 7.375 C5.84441111 11.56400972 4.27542151 13.22848949 1 16 C0.34 15.34 -0.32 14.68 -1 14 C-0.360625 13.4225 0.27875 12.845 0.9375 12.25 C2.98223868 10.01937599 3.58205199 8.92563609 4 6 C3.38125 5.71125 2.7625 5.4225 2.125 5.125 C0 4 0 4 -2 2 C-1.34 1.34 -0.68 0.68 0 0 Z " fill="#F0F3F8" transform="translate(137,140)"/>
<path d="M0 0 C1.134375 0.020625 2.26875 0.04125 3.4375 0.0625 C3.7675 2.3725 4.0975 4.6825 4.4375 7.0625 C1.30251708 8.92026765 -0.93721432 9.26390476 -4.5625 9.0625 C-4.5625 8.4025 -4.5625 7.7425 -4.5625 7.0625 C-3.2425 6.7325 -1.9225 6.4025 -0.5625 6.0625 C-2.2125 5.7325 -3.8625 5.4025 -5.5625 5.0625 C-4.43693182 0.07784091 -4.43693182 0.07784091 0 0 Z " fill="#EEF2F7" transform="translate(220.5625,93.9375)"/>
<path d="M0 0 C2.31 0 4.62 0 7 0 C7.33 0.99 7.66 1.98 8 3 C6.68 3 5.36 3 4 3 C5.32 3.66 6.64 4.32 8 5 C7.67 6.32 7.34 7.64 7 9 C4.36 9 1.72 9 -1 9 C-1 8.34 -1 7.68 -1 7 C0.32 6.67 1.64 6.34 3 6 C1.68 5.34 0.36 4.68 -1 4 C-0.67 2.68 -0.34 1.36 0 0 Z " fill="#E6EBF3" transform="translate(268,90)"/>
<path d="M0 0 C0.66 0 1.32 0 2 0 C2.061875 0.78375 2.12375 1.5675 2.1875 2.375 C2.455625 3.24125 2.72375 4.1075 3 5 C5.47636012 6.37466625 5.47636012 6.37466625 8 7 C8 8.65 8 10.3 8 12 C5.03 11.67 2.06 11.34 -1 11 C-0.67 7.37 -0.34 3.74 0 0 Z " fill="#ECF0F6" transform="translate(96,216)"/>
<path d="M0 0 C0.33 0 0.66 0 1 0 C3.01655037 13.01437551 3.01655037 13.01437551 0.578125 17.77734375 C-1.17963305 19.78569127 -2.80774264 21.47854423 -5 23 C-5.66 23 -6.32 23 -7 23 C-7 22.34 -7 21.68 -7 21 C-9.97 21 -12.94 21 -16 21 C-16 20.67 -16 20.34 -16 20 C-15.32453125 19.97421875 -14.6490625 19.9484375 -13.953125 19.921875 C-8.32628228 19.64673589 -8.32628228 19.64673589 -3.4375 17.125 C-0.96987296 13.47720351 -0.76103329 10.11087088 -0.4375 5.8125 C-0.35371094 4.72582031 -0.26992188 3.63914062 -0.18359375 2.51953125 C-0.12300781 1.68808594 -0.06242187 0.85664063 0 0 Z " fill="#BCDFCD" transform="translate(380,368)"/>
<path d="M0 0 C0.33 0.66 0.66 1.32 1 2 C1.66 2 2.32 2 3 2 C4.07957377 5.23872132 4.13326784 7.66028205 4.125 11.0625 C4.12757813 12.12597656 4.13015625 13.18945312 4.1328125 14.28515625 C4 17 4 17 3 19 C2.34 19 1.68 19 1 19 C0.67 12.73 0.34 6.46 0 0 Z " fill="#CEDFEB" transform="translate(380,361)"/>
<path d="M0 0 C0.99 0.33 1.98 0.66 3 1 C4.23867161 3.61497339 5.08503983 6.25511949 6 9 C5.46375 8.649375 4.9275 8.29875 4.375 7.9375 C1.26725237 6.71075751 -0.79431703 7.27143569 -4 8 C-4.66 6.68 -5.32 5.36 -6 4 C-3.1875 1.9375 -3.1875 1.9375 0 0 Z " fill="#EEF2F7" transform="translate(403,175)"/>
<path d="M0 0 C-0.99 0.33 -1.98 0.66 -3 1 C-3 1.99 -3 2.98 -3 4 C-7.29 4 -11.58 4 -16 4 C-16.33 4.99 -16.66 5.98 -17 7 C-21.455 7.495 -21.455 7.495 -26 8 C-19.6148004 2.85962142 -8.18370668 -2.50558421 0 0 Z " fill="#B3CCE3" transform="translate(224,119)"/>
<path d="M0 0 C3.3 0.33 6.6 0.66 10 1 C9.67 1.66 9.34 2.32 9 3 C6.9375 3.625 6.9375 3.625 5 4 C4.67 5.65 4.34 7.3 4 9 C2.35 9 0.7 9 -1 9 C-0.67 6.03 -0.34 3.06 0 0 Z " fill="#E3E9F2" transform="translate(280,91)"/>
<path d="M0 0 C0.33 0 0.66 0 1 0 C1 1.98 1 3.96 1 6 C2.32 6.33 3.64 6.66 5 7 C3.68 7.33 2.36 7.66 1 8 C1 9.32 1 10.64 1 12 C-0.32 12.33 -1.64 12.66 -3 13 C-3.27131956 7.66404866 -3.4266889 4.38616179 0 0 Z " fill="#F1F4F8" transform="translate(201,96)"/>
<path d="M0 0 C3.95725781 1.62834532 6.80193916 4.36118811 9.875 7.25 C10.40512695 7.74218018 10.93525391 8.23436035 11.48144531 8.74145508 C15.06726416 12.08428897 18.58101349 15.48604164 22 19 C21.67 19.66 21.34 20.32 21 21 C20.5968457 20.57589844 20.19369141 20.15179688 19.77832031 19.71484375 C17.94609124 17.79947505 16.09840891 15.8997536 14.25 14 C13.61578125 13.33226562 12.9815625 12.66453125 12.328125 11.9765625 C11.709375 11.34492188 11.090625 10.71328125 10.453125 10.0625 C9.60476074 9.18271484 9.60476074 9.18271484 8.73925781 8.28515625 C6.82425211 6.60381548 6.82425211 6.60381548 3 7 C2.690625 6.21625 2.38125 5.4325 2.0625 4.625 C1.07124962 2.07669872 1.07124962 2.07669872 0 0 Z " fill="#9DBDDC" transform="translate(345,145)"/>
<path d="M0 0 C3.12290635 0.48578543 5.99580359 0.9986012 9 2 C8.67 3.65 8.34 5.3 8 7 C5.03 6.01 2.06 5.02 -1 4 C-0.67 2.68 -0.34 1.36 0 0 Z " fill="#E8EDF4" transform="translate(103,192)"/>
<path d="M0 0 C0.66 0.33 1.32 0.66 2 1 C1.50628906 1.47050781 1.01257813 1.94101563 0.50390625 2.42578125 C-0.13675781 3.04839844 -0.77742187 3.67101562 -1.4375 4.3125 C-2.07558594 4.92738281 -2.71367187 5.54226562 -3.37109375 6.17578125 C-5.2221418 8.00644056 -5.2221418 8.00644056 -6 11 C-7.63604196 12.37073786 -9.30678061 13.70055256 -11 15 C-12.35147138 16.31494512 -13.69112542 17.64264858 -15 19 C-15 15.38229607 -14.36541462 14.91551207 -12 12.3125 C-11.36964844 11.61769531 -10.73929688 10.92289063 -10.08984375 10.20703125 C-6.79848676 6.73111219 -3.42451456 3.34446097 0 0 Z " fill="#C7D9EA" transform="translate(162,149)"/>
<path d="M0 0 C-0.6875 1.9375 -0.6875 1.9375 -2 4 C-4.5625 4.625 -4.5625 4.625 -7 5 C-7.33 5.66 -7.66 6.32 -8 7 C-10.31 7 -12.62 7 -15 7 C-12.7360039 4.53282476 -10.40939756 2.89865861 -7.5 1.25 C-6.7265625 0.80140625 -5.953125 0.3528125 -5.15625 -0.109375 C-3 -1 -3 -1 0 0 Z " fill="#BDD3E5" transform="translate(198,128)"/>
<path d="M0 0 C0.33 1.32 0.66 2.64 1 4 C4.3 3.67 7.6 3.34 11 3 C10.67 3.66 10.34 4.32 10 5 C10.33 5.33 10.66 5.66 11 6 C6.83326479 7.79341438 3.25336659 6.01173384 -0.75 4.5625 C-1.44738281 4.31951172 -2.14476562 4.07652344 -2.86328125 3.82617188 C-4.57885098 3.22689752 -6.28989715 2.61470115 -8 2 C-4.77208445 -0.1519437 -3.71599191 -0.20086443 0 0 Z " fill="#D6E4EF" transform="translate(212,386)"/>
<path d="M0 0 C2.92879371 0.62759865 5.36095629 1.58622659 8 3 C7.67 4.32 7.34 5.64 7 7 C3.62537285 6.45276317 1.91765 5.9451 -1 4 C-0.67 2.68 -0.34 1.36 0 0 Z " fill="#ECF0F6" transform="translate(115,167)"/>
<path d="M0 0 C-0.66 0 -1.32 0 -2 0 C-2 0.99 -2 1.98 -2 3 C-1.34 3 -0.68 3 0 3 C0 3.66 0 4.32 0 5 C-0.66 5 -1.32 5 -2 5 C-2.33 5.99 -2.66 6.98 -3 8 C-4.32 7.01 -5.64 6.02 -7 5 C-6.625 2.5625 -6.625 2.5625 -6 0 C-3.50907189 -1.24546405 -2.58919267 -0.7767578 0 0 Z " fill="#EEF1F7" transform="translate(310,98)"/>
<path d="M0 0 C0 0.66 0 1.32 0 2 C0.66 2.33 1.32 2.66 2 3 C1.34 3 0.68 3 0 3 C-0.33 3.99 -0.66 4.98 -1 6 C-2.65 6.33 -4.3 6.66 -6 7 C-6.33 5.68 -6.66 4.36 -7 3 C-2.25 0 -2.25 0 0 0 Z " fill="#CEDAEA" transform="translate(156,129)"/>
<path d="M0 0 C5.94 0.33 11.88 0.66 18 1 C17.67 1.66 17.34 2.32 17 3 C12.05 3 7.1 3 2 3 C2 2.34 2 1.68 2 1 C1.34 0.67 0.68 0.34 0 0 Z " fill="#A9C5E1" transform="translate(355,390)"/>
<path d="M0 0 C3.2626876 3.08632611 6.02235218 5.93483504 8 10 C7.67 10.66 7.34 11.32 7 12 C5.68 12 4.36 12 3 12 C2.67 10.02 2.34 8.04 2 6 C1.01 5.67 0.02 5.34 -1 5 C-0.34 4.67 0.32 4.34 1 4 C0.67 2.68 0.34 1.36 0 0 Z " fill="#AFC9E1" transform="translate(371,171)"/>
<path d="M0 0 C0.66 0.33 1.32 0.66 2 1 C-10.88231668 8.65343984 -10.88231668 8.65343984 -16.19921875 7.5390625 C-16.79347656 7.36117188 -17.38773437 7.18328125 -18 7 C-17.05640625 6.74476563 -17.05640625 6.74476563 -16.09375 6.484375 C-11.66940079 5.23169781 -7.57286536 3.90622284 -3.5 1.75 C-2.345 1.1725 -1.19 0.595 0 0 Z " fill="#6D9CCB" transform="translate(312,385)"/>
<path d="M0 0 C0.99 0.33 1.98 0.66 3 1 C3.33 2.98 3.66 4.96 4 7 C0 7 0 7 -1.75 5.5 C-2.1625 5.005 -2.575 4.51 -3 4 C-2.34 3.67 -1.68 3.34 -1 3 C-0.34 3.33 0.32 3.66 1 4 C0.67 2.68 0.34 1.36 0 0 Z " fill="#F0F3F8" transform="translate(370,131)"/>
<path d="M0 0 C-0.33 0.66 -0.66 1.32 -1 2 C-1.99 2 -2.98 2 -4 2 C-4 2.66 -4 3.32 -4 4 C-5.98 4 -7.96 4 -10 4 C-10 3.34 -10 2.68 -10 2 C-10.66 1.67 -11.32 1.34 -12 1 C-7.93631321 0.22596442 -4.13574827 -0.0984702 0 0 Z " fill="#D8E6ED" transform="translate(240,116)"/>
<path d="M0 0 C9.59453303 2.70615034 9.59453303 2.70615034 13 7 C10.03 6.67 7.06 6.34 4 6 C4 4.68 4 3.36 4 2 C2.68 1.67 1.36 1.34 0 1 C0 0.67 0 0.34 0 0 Z " fill="#9ABBDB" transform="translate(314,126)"/>
<path d="M0 0 C1.32 0.33 2.64 0.66 4 1 C3.67 2.32 3.34 3.64 3 5 C0.36 5 -2.28 5 -5 5 C-5 4.34 -5 3.68 -5 3 C-3.35 3 -1.7 3 0 3 C0 2.01 0 1.02 0 0 Z " fill="#EEF2F7" transform="translate(272,94)"/>
<path d="M0 0 C1.77155654 0.11429397 3.54226229 0.24183037 5.3125 0.375 C6.79169922 0.47941406 6.79169922 0.47941406 8.30078125 0.5859375 C11 1 11 1 14 3 C9.38 3 4.76 3 0 3 C0 2.01 0 1.02 0 0 Z " fill="#E1ECF1" transform="translate(277,117)"/>
<path d="M0 0 C1.81293089 0.14037521 3.6253443 0.28744889 5.4375 0.4375 C6.95150391 0.55931641 6.95150391 0.55931641 8.49609375 0.68359375 C11 1 11 1 12 2 C13.34747084 2.23075082 14.70377565 2.41153063 16.0625 2.5625 C17.361875 2.706875 18.66125 2.85125 20 3 C20 3.33 20 3.66 20 4 C12.7515055 4.41640288 6.83085645 3.44166784 0 1 C0 0.67 0 0.34 0 0 Z " fill="#95B8DA" transform="translate(223,393)"/>
<path d="M0 0 C1.88391785 3.26545761 2.49287967 6.28111761 3 10 C2.01 10.33 1.02 10.66 0 11 C-1.7578125 5.04296875 -1.7578125 5.04296875 -2 3 C-1.34 2.01 -0.68 1.02 0 0 Z " fill="#BCD9DA" transform="translate(379,353)"/>
<path d="M0 0 C0.33 0.99 0.66 1.98 1 3 C1.66 3 2.32 3 3 3 C3.33 2.01 3.66 1.02 4 0 C4 2.31 4 4.62 4 7 C2.68 7.33 1.36 7.66 0 8 C0 5.36 0 2.72 0 0 Z " fill="#F7F9FB" transform="translate(102,207)"/>
<path d="M0 0 C0.66 0 1.32 0 2 0 C2 0.66 2 1.32 2 2 C3.32 2.66 4.64 3.32 6 4 C3.35261084 5.4606285 2.10551666 6 -1 6 C-1.625 4.125 -1.625 4.125 -2 2 C-1.34 1.34 -0.68 0.68 0 0 Z " fill="#3C77B7" transform="translate(390,157)"/>
<path d="M0 0 C0.99 0.495 0.99 0.495 2 1 C2 1.66 2 2.32 2 3 C2.66 3 3.32 3 4 3 C4.33 2.34 4.66 1.68 5 1 C5.33 2.65 5.66 4.3 6 6 C4.68 6 3.36 6 2 6 C0 3 0 3 0 0 Z " fill="#F6F8FB" transform="translate(395,167)"/>
<path d="M0 0 C-0.639375 0.103125 -1.27875 0.20625 -1.9375 0.3125 C-2.618125 0.539375 -3.29875 0.76625 -4 1 C-4.33 1.99 -4.66 2.98 -5 4 C-9.455 4.495 -9.455 4.495 -14 5 C-10.63156097 2.05261585 -4.40469071 -2.20234535 0 0 Z " fill="#9CBDDC" transform="translate(212,122)"/>
<path d="M0 0 C0 0.99 0 1.98 0 3 C-1.98 3.99 -1.98 3.99 -4 5 C-4 4.34 -4 3.68 -4 3 C-6.97 3 -9.94 3 -13 3 C-13 2.67 -13 2.34 -13 2 C-8.71 1.34 -4.42 0.68 0 0 Z " fill="#C6E3D8" transform="translate(377,386)"/>
<path d="M0 0 C0.66 0 1.32 0 2 0 C2 0.66 2 1.32 2 2 C4.475 2.99 4.475 2.99 7 4 C6.01 4.66 5.02 5.32 4 6 C2.68 5.34 1.36 4.68 0 4 C0 2.68 0 1.36 0 0 Z " fill="#C3D1E5" transform="translate(366,135)"/>
<path d="M0 0 C-1.7015625 0.680625 -1.7015625 0.680625 -3.4375 1.375 C-7.04721692 2.57095806 -7.04721692 2.57095806 -8 5 C-9.32 4.34 -10.64 3.68 -12 3 C-10.75823305 2.29773859 -9.50614401 1.61370891 -8.25 0.9375 C-7.20585937 0.36322266 -7.20585937 0.36322266 -6.140625 -0.22265625 C-3.63859372 -1.1312406 -2.4667645 -0.88336837 0 0 Z " fill="#BEE5C3" transform="translate(235,337)"/>
<path d="M0 0 C1.32 0 2.64 0 4 0 C3.67 1.65 3.34 3.3 3 5 C1.68 4.67 0.36 4.34 -1 4 C-0.67 2.68 -0.34 1.36 0 0 Z " fill="#3D79B8" transform="translate(134,144)"/>
<path d="M0 0 C0.99 0.33 1.98 0.66 3 1 C1.68 1.99 0.36 2.98 -1 4 C-0.67 2.68 -0.34 1.36 0 0 Z M-3 4 C-1.68 4.66 -0.36 5.32 1 6 C-2.465 7.485 -2.465 7.485 -6 9 C-4.125 5.125 -4.125 5.125 -3 4 Z " fill="#DBE2EE" transform="translate(136,138)"/>
<path d="M0 0 C3.95820859 0.56545837 6.6659053 1.80902348 10 4 C7 5 7 5 5.17578125 4.22265625 C3.45052083 3.1484375 1.72526042 2.07421875 0 1 C0 0.67 0 0.34 0 0 Z " fill="#92B5D8" transform="translate(188,380)"/>
<path d="M0 0 C0.66 0.99 1.32 1.98 2 3 C1.360625 3.2475 0.72125 3.495 0.0625 3.75 C-2.18741541 4.81562433 -2.18741541 4.81562433 -2.75 7.125 C-2.8325 7.74375 -2.915 8.3625 -3 9 C-3.66 9 -4.32 9 -5 9 C-3.7508258 5.54074837 -2.32472205 2.85306797 0 0 Z " fill="#CBDCEC" transform="translate(140,174)"/>
<path d="M0 0 C2.34058637 2.12780579 3.70700306 4.11562221 5 7 C3.68 7 2.36 7 1 7 C0 2.25 0 2.25 0 0 Z " fill="#BCCBE1" transform="translate(393,167)"/>
<path d="M0 0 C1.65 0.33 3.3 0.66 5 1 C5 1.99 5 2.98 5 4 C2.69 4 0.38 4 -2 4 C-1.01 3.67 -0.02 3.34 1 3 C0.67 2.01 0.34 1.02 0 0 Z " fill="#FBFCFD" transform="translate(247,91)"/>
<path d="M0 0 C4.62609198 -0.3227506 7.28026121 0.15549386 11 3 C11 3.66 11 4.32 11 5 C10.29875 4.71125 9.5975 4.4225 8.875 4.125 C5.94547497 2.97866412 2.99078347 1.97374346 0 1 C0 0.67 0 0.34 0 0 Z " fill="#B2CBE4" transform="translate(331,375)"/>
<path d="M0 0 C0.33 0.66 0.66 1.32 1 2 C1.99 2.33 2.98 2.66 4 3 C3.67 4.65 3.34 6.3 3 8 C0.47411298 5.63707344 -0.88820837 4.33537489 -2 1 C-1.34 0.67 -0.68 0.34 0 0 Z " fill="#D0E1E9" transform="translate(141,334)"/>
<path d="M0 0 C0.66 0.33 1.32 0.66 2 1 C1.67 2.32 1.34 3.64 1 5 C-1.31 5 -3.62 5 -6 5 C-4.06745228 2.9754262 -2.36841312 1.57894208 0 0 Z " fill="#AFCADF" transform="translate(189,130)"/>
<path d="M0 0 C1.32 0 2.64 0 4 0 C3.67 1.32 3.34 2.64 3 4 C1.68 4 0.36 4 -1 4 C-0.67 2.68 -0.34 1.36 0 0 Z " fill="#2F70B4" transform="translate(179,110)"/>
<path d="M0 0 C2.475 0.495 2.475 0.495 5 1 C5 1.99 5 2.98 5 4 C3.35 4 1.7 4 0 4 C0 2.68 0 1.36 0 0 Z " fill="#C0CEE3" transform="translate(308,103)"/>
<path d="M0 0 C0.78375 0.04125 1.5675 0.0825 2.375 0.125 C2.705 1.115 3.035 2.105 3.375 3.125 C0.735 2.795 -1.905 2.465 -4.625 2.125 C-2.625 0.125 -2.625 0.125 0 0 Z " fill="#C3D0E4" transform="translate(232.625,90.875)"/>
</svg>
